<?xml version="1.0" standalone="no"?>
<!DOCTYPE svg PUBLIC "-//W3C//DTD SVG 20010904//EN"
 "http://www.w3.org/TR/2001/REC-SVG-20010904/DTD/svg10.dtd">
<svg version="1.0" xmlns="http://www.w3.org/2000/svg"
 width="928.000000pt" height="928.000000pt" viewBox="0 0 928.000000 928.000000"
 preserveAspectRatio="xMidYMid meet">
<metadata>
Created by potrace 1.14, written by Peter Selinger 2001-2017
</metadata>
<g transform="translate(0.000000,928.000000) scale(0.100000,-0.100000)"
fill="#000000" stroke="none">
<path d="M4515 9226 c-74 -19 -99 -31 -139 -67 -76 -66 -96 -144 -96 -369 0
-133 3 -160 15 -168 11 -5 27 -64 50 -181 38 -187 40 -204 25 -181 -8 11 -10
3 -8 -30 2 -34 7 -45 19 -44 15 1 26 -33 55 -171 2 -11 -5 -2 -16 20 l-19 40
2 -45 c2 -37 5 -45 21 -45 11 0 21 -5 22 -10 39 -153 95 -350 130 -456 40
-124 56 -184 34 -134 -7 15 -9 9 -9 -26 -1 -35 3 -49 15 -53 14 -5 16 -1 10
26 -10 50 -1 32 52 -108 120 -313 253 -583 441 -896 257 -427 405 -602 581
-687 71 -34 80 -36 170 -35 127 1 207 29 526 182 270 129 317 149 322 132 2
-6 32 -9 70 -9 l67 2 -52 10 c-29 5 -53 13 -53 17 0 15 120 42 213 47 95 6
200 -8 212 -26 2 -5 -25 -2 -62 5 -70 15 -79 14 -70 -11 5 -12 24 -15 96 -15
l89 0 50 -45 c117 -105 194 -276 292 -646 47 -174 60 -242 40 -194 -6 14 -9 2
-9 -42 -1 -50 2 -63 14 -63 8 0 15 8 16 18 1 23 26 -61 34 -112 l5 -41 -14 30
-14 30 -1 -42 c-1 -45 12 -63 27 -37 11 19 10 21 52 -221 33 -190 35 -213 15
-170 l-14 30 2 -45 c2 -35 6 -45 18 -44 18 2 18 4 44 -221 18 -160 18 -238 -1
-100 -20 144 -22 145 -21 5 2 -118 3 -125 22 -125 18 0 21 -9 27 -90 7 -103
18 -777 11 -700 -2 28 -8 113 -12 190 -6 104 -9 11 -9 -360 0 -275 -4 -520 -7
-545 -10 -68 -17 -80 -25 -40 -5 23 -8 -2 -9 -73 -1 -127 -20 -299 -34 -308
-13 -9 9 -303 28 -366 31 -104 108 -151 199 -121 101 34 198 100 316 218 174
174 299 361 455 685 108 221 165 361 251 610 44 130 66 181 79 183 13 3 15 10
10 30 -4 15 -7 29 -7 32 -1 3 2 18 7 33 6 21 12 26 26 22 22 -7 25 9 9 49 -14
37 10 112 35 108 15 -3 17 1 10 30 -11 45 -10 52 23 223 18 92 31 141 34 127
4 -12 11 -22 17 -22 14 0 14 34 1 97 -7 34 -6 73 4 138 8 55 14 75 15 53 1
-31 5 -38 21 -38 16 0 19 5 15 23 -25 113 -32 760 -8 775 7 5 6 39 -3 112 -7
58 -13 114 -14 125 0 14 -3 16 -8 7 -5 -7 -13 31 -20 90 -9 74 -9 104 -1 109
8 5 8 22 -2 65 -10 47 -14 54 -18 35 -4 -16 -12 12 -25 85 -10 60 -31 163 -47
228 -16 65 -27 127 -23 138 6 21 -14 91 -25 84 -4 -3 -29 61 -55 142 -135 413
-309 776 -540 1127 -610 927 -1526 1570 -2629 1846 -92 23 -165 44 -162 48 4
3 -15 11 -42 18 -30 8 -49 9 -51 3 -4 -12 -84 -1 -93 12 -10 15 -141 40 -149
29 -3 -6 -53 0 -130 15 -69 14 -162 27 -207 29 -46 3 -113 9 -150 15 -94 13
-298 11 -358 -4z m448 -432 c6 -11 35 -14 130 -14 143 0 341 -31 577 -91 166
-42 174 -45 378 -114 910 -311 1710 -918 2195 -1667 171 -263 283 -497 381
-793 54 -167 96 -338 96 -398 0 -24 4 -47 9 -53 8 -8 32 -106 27 -111 -5 -5
-122 94 -240 203 -255 237 -340 303 -496 387 -169 91 -291 133 -520 178 -137
27 -391 30 -565 5 -109 -15 -124 -16 -164 -1 -53 18 -51 18 -51 0 0 -7 7 -18
16 -23 11 -6 -4 -12 -53 -21 -58 -10 -75 -10 -112 4 -53 18 -51 18 -51 0 0
-11 11 -15 37 -15 20 0 34 -2 31 -5 -2 -3 -81 -27 -174 -54 -93 -27 -258 -79
-367 -116 -108 -36 -202 -63 -208 -60 -5 4 -65 91 -133 193 -422 642 -653
1097 -815 1604 -27 86 -52 178 -56 205 -4 26 -13 70 -22 96 -8 27 -17 66 -19
88 -2 22 -10 66 -18 97 -7 31 -19 91 -25 132 -13 86 -30 351 -23 364 8 15 226
-3 235 -20z m2956 -3087 c149 -73 268 -174 412 -348 239 -287 389 -593 445
-904 25 -140 26 -467 1 -620 -56 -344 -192 -723 -427 -1189 -87 -174 -110
-212 -129 -214 -23 -4 -23 -4 -16 90 5 58 12 97 20 104 12 9 12 74 0 395 -8
211 -19 418 -24 459 -6 41 -15 140 -21 220 -28 378 -118 1008 -206 1439 -5 23
-3 36 7 41 11 7 10 17 -3 57 -15 44 -16 45 -18 18 -1 -16 -15 31 -31 105 -34
157 -78 345 -86 366 -7 20 1 18 76 -19z m-292 -709 c-3 -7 -5 -2 -5 12 0 14 2
19 5 13 2 -7 2 -19 0 -25z"/>
<path d="M8083 4686 c1 -37 7 -61 15 -64 16 -5 15 31 -3 83 l-13 40 1 -59z"/>
<path d="M8123 4425 c2 -64 5 -80 17 -80 17 0 16 21 -5 105 l-13 55 1 -80z"/>
<path d="M8160 4062 c0 -63 2 -72 18 -72 18 0 18 4 5 67 -8 37 -16 69 -19 72
-2 2 -4 -28 -4 -67z"/>
<path d="M3637 9170 c-4 -17 -75 -30 -163 -30 -19 0 -34 -4 -34 -10 0 -5 -6
-10 -14 -10 -25 0 -280 -82 -381 -123 -285 -114 -621 -277 -830 -402 -548
-327 -1043 -798 -1411 -1345 -282 -419 -505 -902 -634 -1373 -19 -69 -30 -96
-35 -84 -14 34 -20 16 -20 -65 0 -91 -11 -150 -24 -129 -5 7 -10 -35 -13 -94
-6 -99 -14 -138 -25 -107 -3 6 -9 12 -14 12 -12 0 -12 -93 1 -106 6 -6 4 -53
-5 -129 -8 -66 -15 -127 -16 -135 -1 -8 -4 1 -8 20 -3 19 -6 -162 -7 -402 0
-400 1 -437 16 -441 13 -3 19 -21 24 -68 4 -35 9 -77 12 -94 2 -16 2 -24 -2
-18 -14 30 -25 9 -22 -39 3 -46 6 -53 25 -56 18 -3 23 -13 32 -66 14 -80 14
-96 1 -76 -7 11 -10 -1 -10 -42 0 -50 2 -57 22 -60 19 -3 26 -22 63 -158 191
-710 544 -1368 1031 -1920 96 -109 338 -353 434 -436 475 -414 1030 -725 1610
-902 91 -28 190 -56 220 -62 30 -7 69 -18 85 -25 17 -8 61 -16 98 -20 45 -4
70 -12 74 -21 4 -10 25 -14 83 -14 69 0 78 -2 83 -20 4 -16 14 -20 46 -20 46
0 52 6 19 20 -21 8 -20 9 10 9 21 1 35 -5 39 -15 5 -14 21 -16 102 -13 201 5
301 0 301 -16 0 -13 21 -15 133 -14 112 2 122 3 65 9 -111 11 -90 20 48 20 71
1 176 5 233 10 70 6 109 6 117 -1 7 -5 45 -9 86 -7 70 3 72 3 38 15 l-35 11
34 1 c20 1 38 -5 45 -15 8 -11 24 -14 51 -12 l40 3 -35 17 -35 16 30 3 c17 1
73 1 125 1 86 -2 92 0 66 12 l-28 13 53 10 c30 6 87 9 127 6 71 -6 91 0 52 15
-15 6 22 18 132 46 283 71 633 198 865 315 154 77 468 252 552 309 94 62 204
161 245 221 15 22 38 66 52 98 l24 58 0 -47 c0 -41 3 -48 20 -48 18 0 20 5 15
38 -14 99 -25 238 -25 304 0 40 -10 164 -22 276 -19 174 -21 204 -9 212 13 7
12 17 -1 67 -9 32 -26 170 -37 307 -66 773 -289 1564 -589 2091 -108 188 -252
385 -354 481 -78 74 -129 98 -208 99 -90 0 -167 -39 -290 -150 -217 -194 -258
-227 -329 -263 -138 -69 -244 -45 -384 87 -131 124 -226 254 -454 621 -250
402 -380 666 -522 1060 -65 181 -142 452 -136 478 3 13 -5 49 -20 86 -14 35
-23 70 -20 78 3 8 -5 46 -19 84 -32 91 -80 385 -64 395 10 6 -6 95 -28 152 -4
12 -1 17 10 17 19 0 19 20 1 75 l-13 40 -2 -45 c-3 -45 -3 -44 -10 15 -5 39
-4 62 3 67 7 4 6 95 -3 300 -11 260 -10 309 4 430 9 75 16 142 16 148 0 6 5 8
12 4 8 -5 9 3 4 32 -19 104 -19 124 -1 124 15 0 16 6 11 43 -4 23 -13 67 -20
97 -13 51 -14 52 -15 20 l-2 -35 -23 50 c-41 87 -98 125 -191 125 -22 0 -63 6
-92 14 -47 13 -52 12 -56 -4z m-367 -565 c0 -2 -21 -53 -46 -112 -50 -118 -91
-197 -227 -433 -111 -194 -188 -353 -265 -545 -159 -397 -273 -758 -351 -1115
-48 -217 -62 -305 -93 -585 -16 -134 -16 -768 -1 -787 6 -7 16 -65 23 -128 8
-63 17 -117 21 -120 4 -3 10 -23 13 -45 l7 -40 -15 30 -14 30 -1 -42 c-1 -31
3 -43 13 -43 20 0 26 -23 26 -101 0 -66 1 -69 23 -69 21 0 28 -14 74 -157 28
-87 79 -237 113 -333 101 -288 166 -495 215 -683 25 -97 45 -185 45 -195 0
-17 -13 -20 -117 -27 -65 -5 -217 -9 -338 -9 -249 -1 -350 15 -509 79 -561
226 -975 706 -1181 1371 -65 209 -118 491 -97 517 6 8 3 41 -9 102 -24 112
-24 370 0 384 11 7 12 19 4 61 -8 39 -7 66 3 108 7 32 20 100 28 152 22 135
109 411 135 429 15 9 21 24 21 50 0 70 157 380 318 626 263 405 619 781 1012
1072 262 194 622 393 776 429 40 10 71 21 68 25 -7 12 8 18 154 64 129 41 172
51 172 40z m270 -482 c8 -21 16 -96 19 -168 5 -106 9 -130 21 -130 11 0 14 11
13 45 l-2 45 14 -55 c18 -69 39 -249 31 -257 -3 -4 -6 7 -7 23 0 16 -6 63 -13
104 l-13 75 -2 -132 c-1 -127 0 -133 19 -133 15 0 20 7 20 27 0 56 8 14 13
-72 4 -55 3 -80 -2 -65 -5 14 -10 21 -11 15 -1 -5 -10 8 -20 30 l-19 40 0 -41
c-1 -34 3 -43 19 -47 18 -5 20 -14 20 -86 0 -73 2 -81 19 -81 16 0 20 -10 26
-62 4 -35 13 -107 21 -160 8 -54 14 -113 14 -130 0 -18 7 -51 15 -73 8 -22 14
-59 15 -82 0 -23 4 -44 9 -48 11 -6 41 -104 41 -134 0 -12 4 -29 10 -39 5 -9
28 -75 51 -147 229 -722 632 -1412 1157 -1983 58 -63 102 -118 99 -126 -16
-41 -598 -443 -862 -595 -150 -87 -457 -236 -597 -291 -120 -47 -367 -124
-374 -118 -3 3 -152 346 -221 508 -134 317 -216 565 -261 800 -36 183 -41 211
-47 276 -3 27 -7 56 -10 64 -2 8 -9 110 -14 226 -10 201 0 597 16 634 3 8 5
25 4 36 -2 24 28 219 60 384 54 288 186 724 327 1086 114 292 369 873 383 874
3 0 12 -17 19 -37z m47 -195 c-3 -8 -6 -5 -6 6 -1 11 2 17 5 13 3 -3 4 -12 1
-19z m80 -560 c-3 -7 -5 -2 -5 12 0 14 2 19 5 13 2 -7 2 -19 0 -25z m2349
-3117 c3 -59 1 -80 -5 -66 -7 15 -10 8 -10 -32 -1 -29 4 -53 9 -53 6 0 10 -5
10 -11 0 -5 -4 -7 -10 -4 -6 4 -10 -21 -10 -67 0 -40 -3 -84 -7 -97 l-6 -23
-13 28 -12 29 -1 -42 c-1 -23 4 -43 9 -45 10 -3 -56 -258 -84 -323 -7 -16 -21
-64 -31 -105 -55 -228 -269 -830 -296 -830 -4 0 -11 -15 -14 -32 -18 -83 -190
-413 -343 -658 -211 -338 -387 -553 -746 -915 -218 -220 -298 -285 -421 -345
-122 -59 -190 -73 -320 -67 -186 9 -376 68 -715 220 -242 109 -279 126 -415
199 -873 471 -1597 1295 -1911 2175 -63 179 -144 499 -144 574 0 33 24 20 54
-29 185 -301 481 -601 750 -759 38 -22 66 -46 68 -57 2 -13 19 -25 55 -37 28
-9 53 -15 56 -13 2 2 38 -11 79 -30 86 -39 331 -120 397 -131 30 -5 45 -13 48
-26 4 -16 15 -19 60 -19 38 0 52 3 47 12 -5 8 0 9 17 4 13 -5 151 -10 307 -13
230 -4 282 -3 282 8 0 10 3 10 12 1 7 -7 30 -12 53 -12 35 1 38 2 22 14 -15
12 -12 14 29 20 26 3 64 6 85 6 21 0 40 4 43 8 3 5 38 15 78 22 40 7 78 16 83
20 6 4 48 17 95 30 432 115 1045 418 1660 821 215 141 461 314 815 572 226
166 271 195 278 181 5 -9 11 -55 13 -103z m491 -169 c74 -109 107 -169 162
-291 51 -110 145 -380 155 -441 l6 -35 -14 35 -14 35 -1 -64 c-1 -62 0 -63 24
-59 23 5 25 1 44 -81 41 -172 91 -484 91 -562 0 -44 4 -79 9 -79 5 0 11 -14
13 -32 5 -29 4 -30 -9 -12 -13 17 -14 15 -11 -26 2 -29 7 -44 16 -42 15 3 13
14 22 -108 19 -238 41 -446 50 -462 6 -10 10 -26 10 -35 0 -15 -2 -16 -10 -3
-7 11 -10 4 -10 -27 0 -31 4 -43 14 -43 21 0 29 -67 24 -217 -3 -115 -6 -133
-31 -180 -36 -69 -112 -144 -216 -211 -100 -65 -519 -267 -706 -340 -322 -126
-694 -221 -981 -251 -54 -6 -112 -15 -129 -19 -16 -5 -43 -5 -60 0 -19 5 -31
4 -33 -2 -2 -5 -22 -10 -45 -10 -67 0 -297 22 -297 29 1 3 22 22 48 42 169
131 441 410 633 649 540 676 949 1539 1108 2340 41 207 60 342 68 472 3 60 9
108 12 108 3 0 29 -35 58 -78z m-1858 -3568 c2 -2 -14 -4 -37 -4 -23 0 -42 4
-42 9 0 9 69 4 79 -5z m-156 -421 c-7 -2 -19 -2 -25 0 -7 3 -2 5 12 5 14 0 19
-2 13 -5z"/>
<path d="M4241 8973 c-1 -50 2 -63 14 -63 18 0 18 30 0 85 l-13 40 -1 -62z"/>
<path d="M4443 7871 c1 -25 7 -46 15 -49 16 -5 15 25 -3 63 l-14 30 2 -44z"/>
<path d="M5800 5567 c0 -10 13 -16 40 -19 44 -4 54 6 16 16 -13 3 -31 9 -40
12 -10 4 -16 1 -16 -9z"/>
<path d="M7681 1638 c-1 -36 3 -48 14 -48 18 0 18 13 0 60 l-13 35 -1 -47z"/>
</g>
</svg>
